<?xml version="1.0" standalone="no"?>
<!DOCTYPE svg PUBLIC "-//W3C//DTD SVG 20010904//EN"
 "http://www.w3.org/TR/2001/REC-SVG-20010904/DTD/svg10.dtd">
<svg version="1.0" xmlns="http://www.w3.org/2000/svg"
 width="1066.000000pt" height="839.000000pt" viewBox="0 0 1066.000000 839.000000"
 preserveAspectRatio="xMidYMid meet">

<g transform="translate(0.000000,839.000000) scale(0.100000,-0.100000)"
fill="#000000" stroke="none">
<path d="M30 4195 l0 -4195 5260 0 5260 0 0 4195 0 4195 -5260 0 -5260 0 0
-4195z m4337 1937 c11 -26 73 -156 137 -289 216 -451 299 -700 312 -933 10
-164 -32 -299 -124 -402 -24 -26 -48 -48 -53 -48 -5 0 -9 20 -9 44 0 126 -51
394 -104 541 -49 138 -57 157 -87 218 -68 134 -110 200 -123 187 -8 -9 -8 -14
1 -17 8 -3 9 -12 2 -33 -6 -16 -8 -56 -6 -89 3 -36 1 -59 -4 -55 -5 3 -9 1 -9
-5 0 -5 6 -12 13 -14 9 -4 9 -8 -2 -15 -13 -9 -13 -13 0 -28 11 -15 11 -16 0
-9 -11 6 -12 1 -7 -31 7 -37 7 -38 -8 -17 -26 35 -518 1014 -513 1019 4 5 111
-108 232 -246 32 -36 96 -116 142 -177 46 -62 90 -113 98 -113 11 0 14 46 15
265 0 202 -2 265 -12 265 -6 0 -3 7 8 15 10 8 33 14 49 14 26 1 33 -6 52 -47z
m923 42 l35 -6 -3 -359 c-1 -204 1 -375 7 -394 6 -23 6 -35 -1 -37 -6 -2 -4
-10 5 -20 10 -9 12 -19 6 -25 -5 -5 1 -67 16 -158 27 -163 34 -378 14 -450 -7
-22 -12 -77 -13 -123 0 -46 -4 -73 -7 -60 -4 19 -7 17 -13 -16 -5 -28 -4 -41
5 -47 10 -6 9 -10 -5 -15 -14 -5 -15 -9 -4 -15 11 -8 11 -10 -1 -18 -10 -6
-11 -13 -2 -27 6 -11 11 -13 11 -6 0 6 4 12 10 12 5 0 7 -6 4 -14 -3 -8 0 -25
6 -38 7 -13 -2 -7 -20 15 -17 20 -36 37 -42 37 -6 0 -27 -19 -47 -42 -95 -111
-140 -159 -213 -230 -43 -43 -80 -78 -83 -78 -2 0 -2 70 1 156 3 101 1 161 -6
169 -7 9 -7 21 0 40 8 21 8 30 -1 35 -8 6 -8 9 0 14 6 4 11 15 10 24 0 14 -2
13 -9 -3 -5 -11 -9 -14 -9 -7 -1 7 8 31 18 55 68 151 81 346 38 562 -14 66
-30 133 -36 150 -7 16 -9 40 -6 53 3 14 2 21 -4 18 -10 -7 -27 52 -17 61 3 4
6 -4 6 -17 0 -13 3 -21 6 -17 4 3 7 135 7 292 l1 286 -49 50 c-61 63 -149 122
-240 165 l-70 33 330 0 c182 1 346 -2 365 -5z m1028 -209 c-3 -118 -2 -215 1
-215 4 0 5 -32 3 -71 -3 -50 -1 -70 6 -65 6 4 49 55 94 114 134 173 388 460
388 438 0 -5 -111 -228 -247 -495 -135 -267 -254 -501 -263 -520 -9 -19 -19
-30 -22 -25 -8 14 -3 328 6 342 11 18 -1 15 -22 -6 -62 -62 -179 -315 -232
-499 -48 -170 -60 -239 -67 -375 -4 -91 -10 -128 -18 -128 -7 0 -30 19 -52 43
-137 148 -166 354 -92 642 53 208 117 361 373 898 l65 137 42 0 42 0 -5 -215z
m-54 -851 c3 -8 2 -12 -4 -9 -6 3 -10 10 -10 16 0 14 7 11 14 -7z m-1934 -8
c0 -3 -4 -8 -10 -11 -5 -3 -10 -1 -10 4 0 6 5 11 10 11 6 0 10 -2 10 -4z
m1921 -43 c-12 -20 -14 -14 -5 12 4 9 9 14 11 11 3 -2 0 -13 -6 -23z m-1903
-8 c-3 -3 -9 2 -12 12 -6 14 -5 15 5 6 7 -7 10 -15 7 -18z m584 -1017 c-7 -7
-12 -8 -12 -2 0 6 3 14 7 17 3 4 9 5 12 2 2 -3 -1 -11 -7 -17z m-1538 -720
c10 -46 21 -96 26 -113 5 -16 14 -57 20 -89 10 -46 14 -56 22 -43 7 14 38 137
75 305 5 19 12 22 58 22 l53 0 37 -157 c21 -87 41 -164 45 -172 5 -9 13 11 23
55 9 38 26 115 38 172 l23 102 59 0 c51 0 58 -2 53 -17 -7 -23 -72 -305 -92
-403 -9 -41 -18 -78 -20 -82 -3 -5 -36 -8 -73 -8 l-68 0 -12 58 c-6 31 -23
104 -38 161 -31 121 -29 123 -75 -81 l-31 -139 -71 3 -71 3 -13 65 c-8 36 -31
142 -53 235 -22 94 -41 178 -43 188 -4 15 4 17 53 17 l58 0 17 -82z m1106 32
l0 -50 -123 0 c-68 0 -126 -2 -128 -4 -3 -3 -3 -23 -1 -45 l4 -40 102 -3 101
-3 3 -47 3 -48 -105 0 c-118 0 -107 8 -109 -77 l0 -38 126 -3 127 -3 0 -49 0
-50 -180 0 -180 0 0 255 0 255 180 0 180 0 0 -50z m516 34 c42 -20 67 -64 66
-117 -1 -34 -8 -50 -47 -103 -6 -9 -1 -19 18 -34 57 -45 70 -104 37 -169 -30
-60 -64 -71 -224 -71 l-136 0 0 255 0 255 126 0 c96 0 134 -4 160 -16z m424
-82 c0 -54 2 -101 4 -103 2 -2 52 -3 110 -1 l106 3 0 100 0 100 53 -3 52 -3
-2 -250 -2 -250 -50 -3 -50 -3 -3 103 -3 103 -105 0 -105 0 -3 -102 -3 -103
-54 0 -55 0 0 255 0 255 55 0 55 0 0 -98z m670 -157 l0 -255 -50 0 -50 0 0
255 0 255 50 0 50 0 0 -255z m630 210 l0 -44 -77 -3 -78 -3 -3 -202 -2 -203
-24 -6 c-13 -3 -37 -4 -52 -2 l-29 3 -5 205 -5 205 -72 3 -73 3 0 44 0 45 210
0 210 0 0 -45z m566 30 c4 -8 3 -31 0 -51 l-7 -35 -122 2 -122 3 -3 -47 c-2
-33 1 -47 10 -47 7 -1 54 -2 103 -3 l90 -2 3 -47 3 -48 -105 0 -106 0 0 -60 0
-60 124 0 c136 0 136 0 136 -66 l0 -34 -185 0 -185 0 0 255 0 255 180 0 c152
0 182 -2 186 -15z m-6140 -914 c12 -40 24 -75 27 -77 3 -3 17 31 32 75 17 51
32 81 41 81 8 0 14 -6 14 -14 0 -29 42 -148 49 -140 5 5 18 42 30 82 12 39 26
72 32 72 6 0 9 -7 5 -15 -3 -8 -17 -53 -32 -100 -14 -47 -32 -85 -38 -85 -7 0
-22 34 -35 75 -12 41 -26 75 -30 75 -4 0 -18 -34 -31 -75 -13 -41 -29 -75 -35
-75 -6 0 -25 45 -42 100 -17 56 -26 99 -20 97 6 -2 21 -36 33 -76z m434 29 l0
-50 60 0 60 0 0 50 c0 28 5 50 10 50 6 0 10 -40 10 -100 0 -60 -4 -100 -10
-100 -5 0 -10 18 -10 40 l0 40 -60 0 -60 0 0 -40 c0 -22 -4 -40 -10 -40 -6 0
-10 40 -10 100 0 60 4 100 10 100 6 0 10 -22 10 -50z m455 40 c-3 -5 -31 -10
-61 -10 l-54 0 0 -40 0 -40 51 0 c27 0 48 -4 45 -8 -3 -5 -26 -8 -51 -7 l-45
1 0 -38 0 -38 63 -1 c43 0 54 -3 37 -8 -21 -6 -50 -7 -107 -2 -10 1 -13 28
-13 101 l0 100 71 0 c44 0 68 -4 64 -10z m315 -10 c27 -27 25 -56 -4 -84 l-25
-22 20 -30 c20 -31 24 -44 12 -44 -5 0 -18 18 -31 40 -20 35 -27 40 -57 40
-34 0 -35 -1 -35 -40 0 -22 -4 -40 -10 -40 -6 0 -10 40 -10 100 l0 100 60 0
c47 0 64 -4 80 -20z m340 10 c0 -6 -27 -10 -60 -10 l-60 0 0 -40 0 -40 52 0
c28 0 48 -3 44 -7 -4 -5 -15 -8 -24 -9 -10 -1 -29 -2 -44 -3 -25 -1 -28 -5
-28 -36 l0 -35 63 -2 c59 -1 60 -1 17 -7 -25 -3 -57 -4 -72 -2 l-28 3 0 99 0
99 70 0 c40 0 70 -4 70 -10z m535 1 c-6 -5 -23 -11 -40 -13 -30 -3 -30 -3 -27
-63 1 -33 -2 -73 -7 -90 -8 -25 -10 -17 -11 48 -2 42 -3 83 -4 90 0 6 -14 13
-31 15 -16 2 -34 8 -39 13 -6 5 24 9 79 9 55 0 85 -4 80 -9z m195 -41 l0 -50
65 0 65 0 0 50 c0 28 5 50 10 50 6 0 10 -40 10 -100 0 -56 -4 -100 -9 -100 -6
0 -11 19 -13 42 l-3 41 -42 -1 c-88 -1 -83 1 -83 -42 0 -22 -4 -40 -10 -40 -6
0 -10 40 -10 100 0 60 4 100 10 100 6 0 10 -22 10 -50z m460 40 c0 -6 -27 -10
-61 -10 l-60 0 3 -37 3 -38 55 -5 c64 -6 53 -23 -13 -18 -42 3 -42 3 -42 -32
l0 -35 58 -3 c31 -2 57 -7 57 -11 0 -7 -21 -8 -122 -2 -15 1 -17 14 -17 101
l0 100 69 0 c40 0 70 -4 70 -10z m429 -79 c12 -40 26 -70 30 -65 4 5 17 42 30
82 13 42 27 72 34 69 6 -2 22 -38 35 -81 13 -43 27 -75 31 -70 5 5 18 42 30
82 12 39 26 72 31 72 5 0 2 -21 -6 -47 -8 -27 -21 -72 -30 -100 -8 -29 -21
-53 -27 -53 -7 0 -22 34 -35 75 -13 41 -26 75 -31 75 -4 0 -18 -34 -31 -75
-13 -41 -29 -75 -35 -75 -11 0 -65 158 -65 190 0 29 18 -7 39 -79z m551 79 c0
-6 -29 -10 -66 -10 l-65 0 3 -37 3 -38 55 -5 c34 -3 50 -8 42 -13 -7 -5 -22
-8 -35 -7 -61 5 -68 2 -65 -32 3 -33 3 -33 68 -39 l65 -6 -72 -1 -73 -2 0 100
0 100 70 0 c40 0 70 -4 70 -10z m310 -10 c24 -24 25 -29 4 -59 -16 -22 -16
-24 0 -33 23 -13 21 -65 -3 -77 -18 -10 -68 -15 -118 -12 -22 1 -23 4 -23 101
l0 100 60 0 c47 0 64 -4 80 -20z m550 5 c17 -9 30 -20 30 -26 0 -5 -13 -3 -30
6 -35 18 -51 19 -83 4 -49 -22 -60 -83 -23 -125 28 -34 84 -38 116 -9 23 21
28 4 4 -19 -26 -27 -89 -20 -126 13 -27 24 -33 36 -33 71 0 35 6 47 33 71 36
32 69 36 112 14z m370 -2 c39 -27 49 -45 50 -86 0 -88 -108 -131 -171 -68 -48
48 -35 126 25 155 40 20 66 20 96 -1z m288 -68 c23 -47 45 -85 49 -85 4 0 25
38 47 85 21 47 43 85 47 85 5 0 9 -45 9 -100 0 -64 -4 -100 -11 -100 -6 0 -10
24 -8 65 1 36 0 67 -2 70 -3 2 -21 -27 -39 -65 -19 -39 -39 -70 -45 -70 -7 0
-27 33 -46 73 l-34 72 -3 -72 c-4 -110 -22 -88 -22 27 0 55 4 100 9 100 5 0
27 -38 49 -85z m472 75 c0 -6 -27 -10 -60 -10 l-60 0 0 -40 0 -40 52 0 c51 0
60 -14 10 -16 -15 -1 -35 -2 -44 -3 -14 -1 -18 -10 -18 -36 l0 -35 62 0 c36 0
58 -4 53 -9 -6 -5 -38 -6 -72 -4 l-63 5 0 99 0 99 70 0 c40 0 70 -4 70 -10z
m284 -1 c14 -7 27 -18 30 -25 7 -19 -8 -18 -24 1 -16 20 -64 19 -81 -1 -19
-23 0 -46 52 -61 40 -12 69 -35 69 -55 0 -4 -9 -17 -20 -28 -27 -27 -90 -27
-115 0 -25 27 -12 37 14 11 26 -26 63 -27 86 -1 23 26 8 46 -49 61 -22 6 -47
16 -53 21 -19 15 -16 45 7 68 23 23 48 25 84 9z m581 2 c-6 -5 -23 -11 -40
-13 l-30 -3 -1 -83 c-1 -45 -4 -85 -8 -89 -3 -3 -6 35 -6 85 l0 92 -34 0 c-19
0 -38 5 -41 10 -4 6 26 10 81 10 54 0 84 -4 79 -9z m351 -22 c64 -60 21 -169
-67 -169 -101 0 -139 136 -51 185 35 20 88 12 118 -16z m426 -61 l3 -93 65 -6
c46 -4 55 -7 30 -9 -62 -6 -103 -1 -111 12 -12 18 -11 188 1 188 5 0 11 -42
12 -92z m318 -8 c0 -60 -4 -100 -10 -100 -6 0 -10 40 -10 100 0 60 4 100 10
100 6 0 10 -40 10 -100z m310 90 c0 -5 -26 -10 -57 -12 l-58 -3 0 -35 0 -35
55 -5 c65 -6 52 -23 -13 -18 l-42 3 -5 -45 c-8 -68 -16 -36 -19 68 l-3 92 71
0 c39 0 71 -4 71 -10z m320 0 c0 -6 -27 -10 -60 -10 l-60 0 0 -40 0 -40 50 0
c28 0 50 -4 50 -10 0 -5 -22 -10 -50 -10 l-50 0 0 -35 0 -35 63 -2 62 -1 -55
-6 c-92 -10 -90 -13 -90 100 l0 99 70 0 c40 0 70 -4 70 -10z"/>
<path d="M4845 3295 c-25 -85 -15 -105 51 -105 45 0 56 4 69 23 12 19 13 30 4
54 -10 29 -14 31 -66 35 -31 2 -57 -1 -58 -7z"/>
<path d="M4840 3045 l0 -55 63 0 c88 0 119 34 81 88 -13 19 -24 22 -80 22
l-64 0 0 -55z"/>
<path d="M2250 2490 l0 -40 48 0 c53 0 72 12 72 46 0 26 -17 34 -76 34 l-44 0
0 -40z"/>
<path d="M5070 2494 l0 -35 51 3 c95 6 93 68 -2 68 l-49 0 0 -36z"/>
<path d="M5070 2400 l0 -40 49 0 c32 0 55 6 65 16 37 36 10 64 -61 64 l-53 0
0 -40z"/>
<path d="M6006 2509 c-20 -16 -26 -29 -26 -57 1 -65 47 -101 106 -82 39 13 54
35 54 80 0 67 -79 102 -134 59z"/>
<path d="M7959 2501 c-44 -45 -34 -100 24 -127 30 -14 38 -15 63 -3 37 18 59
58 50 92 -17 69 -86 88 -137 38z"/>
</g>
</svg>
